<mxfile host="app.diagrams.net" agent="Mozilla/5.0 (Windows NT 10.0; Win64; x64; rv:134.0) Gecko/20100101 Firefox/134.0" version="24.7.17">
  <diagram name="Page-1" id="ikuvDT6OKMOyHR7OV9wa">
    <mxGraphModel dx="1669" dy="431" grid="1" gridSize="10" guides="1" tooltips="1" connect="1" arrows="1" fold="1" page="1" pageScale="1" pageWidth="850" pageHeight="1100" math="0" shadow="0">
      <root>
        <mxCell id="0" />
        <mxCell id="1" parent="0" />
        <mxCell id="fFkARqn0jImhCdl3MGzu-1" value="" style="rounded=0;whiteSpace=wrap;html=1;" vertex="1" parent="1">
          <mxGeometry width="840" height="260" as="geometry" />
        </mxCell>
        <mxCell id="fFkARqn0jImhCdl3MGzu-61" value="" style="edgeStyle=orthogonalEdgeStyle;rounded=0;orthogonalLoop=1;jettySize=auto;html=1;" edge="1" parent="1" source="fFkARqn0jImhCdl3MGzu-2" target="fFkARqn0jImhCdl3MGzu-17">
          <mxGeometry relative="1" as="geometry" />
        </mxCell>
        <mxCell id="fFkARqn0jImhCdl3MGzu-2" value="" style="rounded=0;whiteSpace=wrap;html=1;" vertex="1" parent="1">
          <mxGeometry x="60" y="90" width="210" height="140" as="geometry" />
        </mxCell>
        <mxCell id="fFkARqn0jImhCdl3MGzu-3" value="&lt;font style=&quot;font-size: 38px;&quot;&gt;GraphCast&lt;/font&gt;" style="text;html=1;align=center;verticalAlign=middle;whiteSpace=wrap;rounded=0;" vertex="1" parent="1">
          <mxGeometry x="390" y="10" width="60" height="30" as="geometry" />
        </mxCell>
        <mxCell id="fFkARqn0jImhCdl3MGzu-63" value="" style="edgeStyle=orthogonalEdgeStyle;rounded=0;orthogonalLoop=1;jettySize=auto;html=1;" edge="1" parent="1" source="fFkARqn0jImhCdl3MGzu-4" target="fFkARqn0jImhCdl3MGzu-52">
          <mxGeometry relative="1" as="geometry" />
        </mxCell>
        <mxCell id="fFkARqn0jImhCdl3MGzu-4" value="(16 layer GNN)" style="rounded=0;whiteSpace=wrap;html=1;" vertex="1" parent="1">
          <mxGeometry x="360" y="90" width="120" height="140" as="geometry" />
        </mxCell>
        <mxCell id="fFkARqn0jImhCdl3MGzu-75" style="edgeStyle=orthogonalEdgeStyle;rounded=0;orthogonalLoop=1;jettySize=auto;html=1;exitX=1;exitY=0.5;exitDx=0;exitDy=0;entryX=0;entryY=0.5;entryDx=0;entryDy=0;" edge="1" parent="1" source="fFkARqn0jImhCdl3MGzu-5" target="fFkARqn0jImhCdl3MGzu-73">
          <mxGeometry relative="1" as="geometry" />
        </mxCell>
        <mxCell id="fFkARqn0jImhCdl3MGzu-5" value="" style="rounded=0;whiteSpace=wrap;html=1;" vertex="1" parent="1">
          <mxGeometry x="570" y="90" width="210" height="140" as="geometry" />
        </mxCell>
        <mxCell id="fFkARqn0jImhCdl3MGzu-6" value="&lt;font style=&quot;font-size: 24px;&quot;&gt;Encoder&lt;br&gt;&lt;/font&gt;" style="text;html=1;align=center;verticalAlign=middle;whiteSpace=wrap;rounded=0;" vertex="1" parent="1">
          <mxGeometry x="135" y="100" width="60" height="30" as="geometry" />
        </mxCell>
        <mxCell id="fFkARqn0jImhCdl3MGzu-7" value="&lt;font style=&quot;font-size: 24px;&quot;&gt;Processor&lt;/font&gt;" style="text;html=1;align=center;verticalAlign=middle;whiteSpace=wrap;rounded=0;" vertex="1" parent="1">
          <mxGeometry x="390" y="100" width="60" height="30" as="geometry" />
        </mxCell>
        <mxCell id="fFkARqn0jImhCdl3MGzu-8" value="&lt;font style=&quot;font-size: 24px;&quot;&gt;Decoder&lt;/font&gt;" style="text;html=1;align=center;verticalAlign=middle;whiteSpace=wrap;rounded=0;" vertex="1" parent="1">
          <mxGeometry x="645" y="100" width="60" height="30" as="geometry" />
        </mxCell>
        <mxCell id="fFkARqn0jImhCdl3MGzu-65" value="" style="edgeStyle=orthogonalEdgeStyle;rounded=0;orthogonalLoop=1;jettySize=auto;html=1;entryX=0;entryY=0.5;entryDx=0;entryDy=0;" edge="1" parent="1" source="fFkARqn0jImhCdl3MGzu-9" target="fFkARqn0jImhCdl3MGzu-10">
          <mxGeometry relative="1" as="geometry" />
        </mxCell>
        <mxCell id="fFkARqn0jImhCdl3MGzu-9" value="(MLP)" style="rounded=0;whiteSpace=wrap;html=1;" vertex="1" parent="1">
          <mxGeometry x="80" y="140" width="70" height="70" as="geometry" />
        </mxCell>
        <mxCell id="fFkARqn0jImhCdl3MGzu-10" value="" style="rounded=0;whiteSpace=wrap;html=1;" vertex="1" parent="1">
          <mxGeometry x="180" y="140" width="70" height="70" as="geometry" />
        </mxCell>
        <mxCell id="fFkARqn0jImhCdl3MGzu-11" value="&lt;div&gt;Embedder&lt;/div&gt;" style="text;html=1;align=center;verticalAlign=middle;whiteSpace=wrap;rounded=0;" vertex="1" parent="1">
          <mxGeometry x="85" y="140" width="60" height="30" as="geometry" />
        </mxCell>
        <mxCell id="fFkARqn0jImhCdl3MGzu-12" value="Encoder GNN" style="text;html=1;align=center;verticalAlign=middle;whiteSpace=wrap;rounded=0;" vertex="1" parent="1">
          <mxGeometry x="185" y="150" width="60" height="30" as="geometry" />
        </mxCell>
        <mxCell id="fFkARqn0jImhCdl3MGzu-66" value="" style="edgeStyle=orthogonalEdgeStyle;rounded=0;orthogonalLoop=1;jettySize=auto;html=1;entryX=0;entryY=0.5;entryDx=0;entryDy=0;" edge="1" parent="1" source="fFkARqn0jImhCdl3MGzu-13" target="fFkARqn0jImhCdl3MGzu-14">
          <mxGeometry relative="1" as="geometry" />
        </mxCell>
        <mxCell id="fFkARqn0jImhCdl3MGzu-13" value="" style="rounded=0;whiteSpace=wrap;html=1;" vertex="1" parent="1">
          <mxGeometry x="590" y="140" width="70" height="70" as="geometry" />
        </mxCell>
        <mxCell id="fFkARqn0jImhCdl3MGzu-14" value="(MLP)" style="rounded=0;whiteSpace=wrap;html=1;" vertex="1" parent="1">
          <mxGeometry x="690" y="140" width="70" height="70" as="geometry" />
        </mxCell>
        <mxCell id="fFkARqn0jImhCdl3MGzu-15" value="Decoder GNN" style="text;html=1;align=center;verticalAlign=middle;whiteSpace=wrap;rounded=0;" vertex="1" parent="1">
          <mxGeometry x="595" y="150" width="60" height="30" as="geometry" />
        </mxCell>
        <mxCell id="fFkARqn0jImhCdl3MGzu-16" value="Unembed" style="text;html=1;align=center;verticalAlign=middle;whiteSpace=wrap;rounded=0;" vertex="1" parent="1">
          <mxGeometry x="695" y="140" width="60" height="30" as="geometry" />
        </mxCell>
        <mxCell id="fFkARqn0jImhCdl3MGzu-50" value="" style="group" vertex="1" connectable="0" parent="1">
          <mxGeometry x="305" y="90" width="20" height="140" as="geometry" />
        </mxCell>
        <mxCell id="fFkARqn0jImhCdl3MGzu-17" value="" style="rounded=0;whiteSpace=wrap;html=1;" vertex="1" parent="fFkARqn0jImhCdl3MGzu-50">
          <mxGeometry width="20" height="140" as="geometry" />
        </mxCell>
        <mxCell id="fFkARqn0jImhCdl3MGzu-19" value="" style="endArrow=none;html=1;rounded=0;" edge="1" parent="fFkARqn0jImhCdl3MGzu-50">
          <mxGeometry width="50" height="50" relative="1" as="geometry">
            <mxPoint y="20" as="sourcePoint" />
            <mxPoint x="20" y="20" as="targetPoint" />
          </mxGeometry>
        </mxCell>
        <mxCell id="fFkARqn0jImhCdl3MGzu-45" value="" style="endArrow=none;html=1;rounded=0;" edge="1" parent="fFkARqn0jImhCdl3MGzu-50">
          <mxGeometry width="50" height="50" relative="1" as="geometry">
            <mxPoint y="40" as="sourcePoint" />
            <mxPoint x="20" y="40" as="targetPoint" />
          </mxGeometry>
        </mxCell>
        <mxCell id="fFkARqn0jImhCdl3MGzu-46" value="" style="endArrow=none;html=1;rounded=0;" edge="1" parent="fFkARqn0jImhCdl3MGzu-50">
          <mxGeometry width="50" height="50" relative="1" as="geometry">
            <mxPoint y="60" as="sourcePoint" />
            <mxPoint x="20" y="60" as="targetPoint" />
          </mxGeometry>
        </mxCell>
        <mxCell id="fFkARqn0jImhCdl3MGzu-47" value="" style="endArrow=none;html=1;rounded=0;" edge="1" parent="fFkARqn0jImhCdl3MGzu-50">
          <mxGeometry width="50" height="50" relative="1" as="geometry">
            <mxPoint y="80" as="sourcePoint" />
            <mxPoint x="20" y="80" as="targetPoint" />
          </mxGeometry>
        </mxCell>
        <mxCell id="fFkARqn0jImhCdl3MGzu-48" value="" style="endArrow=none;html=1;rounded=0;" edge="1" parent="fFkARqn0jImhCdl3MGzu-50">
          <mxGeometry width="50" height="50" relative="1" as="geometry">
            <mxPoint y="100" as="sourcePoint" />
            <mxPoint x="20" y="100" as="targetPoint" />
          </mxGeometry>
        </mxCell>
        <mxCell id="fFkARqn0jImhCdl3MGzu-49" value="" style="endArrow=none;html=1;rounded=0;" edge="1" parent="fFkARqn0jImhCdl3MGzu-50">
          <mxGeometry width="50" height="50" relative="1" as="geometry">
            <mxPoint y="120" as="sourcePoint" />
            <mxPoint x="20" y="120" as="targetPoint" />
          </mxGeometry>
        </mxCell>
        <mxCell id="fFkARqn0jImhCdl3MGzu-51" value="" style="group" vertex="1" connectable="0" parent="1">
          <mxGeometry x="515" y="90" width="20" height="140" as="geometry" />
        </mxCell>
        <mxCell id="fFkARqn0jImhCdl3MGzu-52" value="" style="rounded=0;whiteSpace=wrap;html=1;" vertex="1" parent="fFkARqn0jImhCdl3MGzu-51">
          <mxGeometry width="20" height="140" as="geometry" />
        </mxCell>
        <mxCell id="fFkARqn0jImhCdl3MGzu-53" value="" style="endArrow=none;html=1;rounded=0;" edge="1" parent="fFkARqn0jImhCdl3MGzu-51">
          <mxGeometry width="50" height="50" relative="1" as="geometry">
            <mxPoint y="20" as="sourcePoint" />
            <mxPoint x="20" y="20" as="targetPoint" />
          </mxGeometry>
        </mxCell>
        <mxCell id="fFkARqn0jImhCdl3MGzu-54" value="" style="endArrow=none;html=1;rounded=0;" edge="1" parent="fFkARqn0jImhCdl3MGzu-51">
          <mxGeometry width="50" height="50" relative="1" as="geometry">
            <mxPoint y="40" as="sourcePoint" />
            <mxPoint x="20" y="40" as="targetPoint" />
          </mxGeometry>
        </mxCell>
        <mxCell id="fFkARqn0jImhCdl3MGzu-55" value="" style="endArrow=none;html=1;rounded=0;" edge="1" parent="fFkARqn0jImhCdl3MGzu-51">
          <mxGeometry width="50" height="50" relative="1" as="geometry">
            <mxPoint y="60" as="sourcePoint" />
            <mxPoint x="20" y="60" as="targetPoint" />
          </mxGeometry>
        </mxCell>
        <mxCell id="fFkARqn0jImhCdl3MGzu-56" value="" style="endArrow=none;html=1;rounded=0;" edge="1" parent="fFkARqn0jImhCdl3MGzu-51">
          <mxGeometry width="50" height="50" relative="1" as="geometry">
            <mxPoint y="80" as="sourcePoint" />
            <mxPoint x="20" y="80" as="targetPoint" />
          </mxGeometry>
        </mxCell>
        <mxCell id="fFkARqn0jImhCdl3MGzu-57" value="" style="endArrow=none;html=1;rounded=0;" edge="1" parent="fFkARqn0jImhCdl3MGzu-51">
          <mxGeometry width="50" height="50" relative="1" as="geometry">
            <mxPoint y="100" as="sourcePoint" />
            <mxPoint x="20" y="100" as="targetPoint" />
          </mxGeometry>
        </mxCell>
        <mxCell id="fFkARqn0jImhCdl3MGzu-58" value="" style="endArrow=none;html=1;rounded=0;" edge="1" parent="fFkARqn0jImhCdl3MGzu-51">
          <mxGeometry width="50" height="50" relative="1" as="geometry">
            <mxPoint y="120" as="sourcePoint" />
            <mxPoint x="20" y="120" as="targetPoint" />
          </mxGeometry>
        </mxCell>
        <mxCell id="fFkARqn0jImhCdl3MGzu-59" value="Latent" style="text;html=1;align=center;verticalAlign=middle;whiteSpace=wrap;rounded=0;" vertex="1" parent="1">
          <mxGeometry x="285" y="50" width="60" height="30" as="geometry" />
        </mxCell>
        <mxCell id="fFkARqn0jImhCdl3MGzu-60" value="Latent" style="text;html=1;align=center;verticalAlign=middle;whiteSpace=wrap;rounded=0;" vertex="1" parent="1">
          <mxGeometry x="495" y="50" width="60" height="30" as="geometry" />
        </mxCell>
        <mxCell id="fFkARqn0jImhCdl3MGzu-62" value="" style="edgeStyle=orthogonalEdgeStyle;rounded=0;orthogonalLoop=1;jettySize=auto;html=1;entryX=0;entryY=0.5;entryDx=0;entryDy=0;" edge="1" parent="1" source="fFkARqn0jImhCdl3MGzu-17" target="fFkARqn0jImhCdl3MGzu-4">
          <mxGeometry relative="1" as="geometry" />
        </mxCell>
        <mxCell id="fFkARqn0jImhCdl3MGzu-64" value="" style="edgeStyle=orthogonalEdgeStyle;rounded=0;orthogonalLoop=1;jettySize=auto;html=1;entryX=0;entryY=0.5;entryDx=0;entryDy=0;" edge="1" parent="1" source="fFkARqn0jImhCdl3MGzu-52" target="fFkARqn0jImhCdl3MGzu-5">
          <mxGeometry relative="1" as="geometry" />
        </mxCell>
        <mxCell id="fFkARqn0jImhCdl3MGzu-69" value="" style="edgeStyle=orthogonalEdgeStyle;rounded=0;orthogonalLoop=1;jettySize=auto;html=1;entryX=0;entryY=0.5;entryDx=0;entryDy=0;" edge="1" parent="1" source="fFkARqn0jImhCdl3MGzu-67" target="fFkARqn0jImhCdl3MGzu-2">
          <mxGeometry relative="1" as="geometry">
            <Array as="points">
              <mxPoint x="-20" y="130" />
              <mxPoint x="-20" y="160" />
            </Array>
          </mxGeometry>
        </mxCell>
        <mxCell id="fFkARqn0jImhCdl3MGzu-67" value="X&lt;sup&gt;t-1&lt;/sup&gt;" style="rounded=0;whiteSpace=wrap;html=1;" vertex="1" parent="1">
          <mxGeometry x="-100" y="110" width="40" height="40" as="geometry" />
        </mxCell>
        <mxCell id="fFkARqn0jImhCdl3MGzu-70" value="" style="edgeStyle=orthogonalEdgeStyle;rounded=0;orthogonalLoop=1;jettySize=auto;html=1;entryX=0.5;entryY=1;entryDx=0;entryDy=0;" edge="1" parent="1" source="fFkARqn0jImhCdl3MGzu-68" target="fFkARqn0jImhCdl3MGzu-73">
          <mxGeometry relative="1" as="geometry">
            <mxPoint x="860" y="200" as="targetPoint" />
            <Array as="points">
              <mxPoint x="-20" y="190" />
              <mxPoint x="-20" y="280" />
              <mxPoint x="880" y="280" />
            </Array>
          </mxGeometry>
        </mxCell>
        <mxCell id="fFkARqn0jImhCdl3MGzu-71" style="edgeStyle=orthogonalEdgeStyle;rounded=0;orthogonalLoop=1;jettySize=auto;html=1;exitX=1;exitY=0.5;exitDx=0;exitDy=0;entryX=0;entryY=0.5;entryDx=0;entryDy=0;" edge="1" parent="1" source="fFkARqn0jImhCdl3MGzu-68" target="fFkARqn0jImhCdl3MGzu-2">
          <mxGeometry relative="1" as="geometry">
            <Array as="points">
              <mxPoint x="-20" y="190" />
              <mxPoint x="-20" y="160" />
            </Array>
          </mxGeometry>
        </mxCell>
        <mxCell id="fFkARqn0jImhCdl3MGzu-68" value="X&lt;sup&gt;t&lt;/sup&gt;" style="rounded=0;whiteSpace=wrap;html=1;" vertex="1" parent="1">
          <mxGeometry x="-100" y="170" width="40" height="40" as="geometry" />
        </mxCell>
        <mxCell id="fFkARqn0jImhCdl3MGzu-73" value="X&lt;sup&gt;t+1&lt;/sup&gt;" style="rounded=0;whiteSpace=wrap;html=1;" vertex="1" parent="1">
          <mxGeometry x="860" y="140" width="40" height="40" as="geometry" />
        </mxCell>
      </root>
    </mxGraphModel>
  </diagram>
</mxfile>
